<?xml version="1.0" standalone="no"?>
<!DOCTYPE svg PUBLIC "-//W3C//DTD SVG 20010904//EN"
 "http://www.w3.org/TR/2001/REC-SVG-20010904/DTD/svg10.dtd">
<svg version="1.0" xmlns="http://www.w3.org/2000/svg"
 width="80.000000pt" height="80.000000pt" viewBox="0 0 80.000000 80.000000"
 preserveAspectRatio="xMidYMid meet">
<metadata>
Created by potrace 1.14, written by Peter Selinger 2001-2017
</metadata>
<g transform="translate(0.000000,80.000000) scale(0.100000,-0.100000)"
fill="#000000" stroke="none">
<path d="M0 400 l0 -400 400 0 400 0 0 400 0 400 -400 0 -400 0 0 -400z m332
300 c-1 -13 -9 -32 -18 -41 -8 -9 -11 -20 -6 -23 5 -3 9 -16 8 -28 -1 -20 -8
-24 -56 -29 -30 -3 -56 -5 -57 -4 -8 5 22 79 47 113 24 33 35 40 57 38 23 -2
28 -6 25 -26z m-116 -214 c-4 -15 -1 -26 7 -29 6 -2 10 -7 7 -10 -3 -3 -11 -2
-18 2 -12 7 -7 61 5 61 3 0 2 -11 -1 -24z m154 -35 c-3 -28 -8 -52 -11 -53
-48 -30 -49 -30 -35 15 32 103 57 123 46 38z m-139 -32 c16 -15 20 -23 11 -26
-7 -3 -19 -12 -28 -20 -16 -17 -21 -16 -25 7 -3 14 9 60 15 60 2 0 14 -10 27
-21z"/>
</g>
</svg>
